<svg version="1.1" id="Layer_1" xmlns="http://www.w3.org/2000/svg" xmlns:xlink="http://www.w3.org/1999/xlink" x="0px" y="0px" width="58px" height="58px" viewBox="0 0 600 600" enable-background="new 0 0 600 600" xml:space="preserve"><path id="color_x5F_2_1_" fill="#FAA21B" d="M492.364,62.716c-19.473,22.3-22.625,43.72-23.05,52.103    c1.947,1.014,3.831,2.194,5.531,3.74c10.656,9.678,11.448,26.164,1.77,36.819c-9.68,10.656-26.164,11.447-36.819,1.769    c-8.93-8.109-10.83-20.963-5.553-31.196c-0.977-10.241-1.407-46.507,32.644-86.375L449.4,23.692l-161.438,2.186L19.243,321.718    c-9.556,10.521-8.755,26.798,1.786,36.329l24.336,22.003c66.275-76.624,142.974-100.754,191.584-103.296l-58.953-48.302    l42.229,0.847l67.279,29.959l59.64-5.715L222.641,118.571l47.114,9.979l153.792,117.544c0,0,35.518-2.877,73.817-4.861    c25.427-1.317,52.2,11.922,57.66,29.637c0,0-253.416,15.324-300.679,29.466c-69.776,20.877-92.801,133.344-89.436,188.479    l21.575,19.598c-14.319-82.938,7.602-144.03,47.526-186.891c-54.798,91.631-29.069,178.218-8.268,222.549l54.227,49.256    c10.502,9.54,26.75,8.759,36.29-1.743l268.755-295.885l-13.3-160.904L492.364,62.716z M299.726,390.258l-38.137,2.792l84.389-91.274    l64.282-6.625L299.726,390.258z"></path><path id="color_x5F_1" fill="#333B91" d="M477.457,40.013c15.27-16.951,33.361-29.707,50.938-35.909    c19.36-6.839,36.132-5.085,47.226,4.914c21.733,19.582,12.67,63.882-20.633,100.853l-12.771-11.505    c28.227-31.326,34.191-65.502,21.898-76.579c-6.113-5.509-17.053-6.038-29.997-1.477c-14.921,5.265-30.509,16.352-43.894,31.209    c-28.227,31.322-34.196,65.498-21.897,76.583c2.665,2.404,5.942,3.624,9.22,4.177c1.033,6.591-1.196,12.539-3.626,16.754    c-6.602-1.243-12.413-3.941-17.1-8.167C435.082,121.275,444.146,76.975,477.457,40.013z"></path></svg>